<svg data-v-423bf9ae="" xmlns="http://www.w3.org/2000/svg" viewBox="0 0 505 90" class="iconLeft"><!----><!----><!----><g data-v-423bf9ae="" id="c866022f-7f0a-4527-9dba-34d159391db3" fill="#40181B" transform="matrix(4.687500279396789,0,0,4.687500279396789,149.21048587746824,-11.624999351799538)"><path d="M6.59 9.21L6.59 8.71L6.59 8.71Q6.59 8.23 6.41 7.87L6.41 7.87L6.41 7.87Q6.22 7.50 5.89 7.27L5.89 7.27L5.89 7.27Q5.57 7.03 5.15 6.90L5.15 6.90L5.15 6.90Q4.73 6.78 4.27 6.78L4.27 6.78L4.27 6.78Q3.86 6.78 3.50 6.88L3.50 6.88L3.50 6.88Q3.14 6.99 2.85 7.18L2.85 7.18L2.85 7.18Q2.56 7.38 2.39 7.66L2.39 7.66L2.39 7.66Q2.23 7.95 2.23 8.33L2.23 8.33L2.23 8.41L2.23 8.41Q2.23 8.82 2.39 9.11L2.39 9.11L2.39 9.11Q2.56 9.39 2.89 9.60L2.89 9.60L2.89 9.60Q3.22 9.80 3.71 9.93L3.71 9.93L3.71 9.93Q4.20 10.07 4.86 10.16L4.86 10.16L4.86 10.16Q6.40 10.40 7.13 11.07L7.13 11.07L7.13 11.07Q7.85 11.73 7.85 12.85L7.85 12.85L7.85 13.02L7.85 13.02Q7.85 13.65 7.64 14.17L7.64 14.17L7.64 14.17Q7.42 14.70 6.99 15.08L6.99 15.08L6.99 15.08Q6.57 15.46 5.94 15.67L5.94 15.67L5.94 15.67Q5.31 15.88 4.48 15.88L4.48 15.88L4.48 15.88Q3.54 15.88 2.82 15.60L2.82 15.60L2.82 15.60Q2.10 15.33 1.62 14.85L1.62 14.85L1.62 14.85Q1.13 14.36 0.88 13.71L0.88 13.71L0.88 13.71Q0.63 13.06 0.63 12.29L0.63 12.29L0.63 11.87L1.81 11.87L1.81 12.21L1.81 12.21Q1.81 13.50 2.51 14.14L2.51 14.14L2.51 14.14Q3.22 14.78 4.48 14.78L4.48 14.78L4.48 14.78Q5.57 14.78 6.13 14.30L6.13 14.30L6.13 14.30Q6.68 13.82 6.68 13.02L6.68 13.02L6.68 12.94L6.68 12.94Q6.68 12.17 6.11 11.76L6.11 11.76L6.11 11.76Q5.54 11.35 4.27 11.17L4.27 11.17L4.27 11.17Q3.53 11.07 2.93 10.87L2.93 10.87L2.93 10.87Q2.34 10.67 1.92 10.34L1.92 10.34L1.92 10.34Q1.50 10.01 1.27 9.55L1.27 9.55L1.27 9.55Q1.05 9.09 1.05 8.46L1.05 8.46L1.05 8.29L1.05 8.29Q1.05 7.71 1.29 7.24L1.29 7.24L1.29 7.24Q1.53 6.76 1.95 6.41L1.95 6.41L1.95 6.41Q2.38 6.06 2.98 5.87L2.98 5.87L2.98 5.87Q3.57 5.68 4.28 5.68L4.28 5.68L4.28 5.68Q5.11 5.68 5.76 5.92L5.76 5.92L5.76 5.92Q6.41 6.16 6.86 6.56L6.86 6.56L6.86 6.56Q7.31 6.96 7.54 7.50L7.54 7.50L7.54 7.50Q7.77 8.04 7.77 8.62L7.77 8.62L7.77 9.21L6.59 9.21ZM11.58 5.88L11.58 11.62L11.82 11.62L14.46 8.74L15.81 8.74L15.81 8.82L12.92 12.00L12.92 12.25L16.14 15.60L16.14 15.68L14.80 15.68L11.84 12.63L11.58 12.63L11.58 15.68L10.49 15.68L10.49 5.88L11.58 5.88ZM20.51 6.66L20.51 6.66L20.51 6.66Q20.51 6.26 20.80 5.97L20.80 5.97L20.80 5.97Q21.08 5.68 21.49 5.68L21.49 5.68L21.49 5.68Q21.90 5.68 22.18 5.97L22.18 5.97L22.18 5.97Q22.47 6.26 22.47 6.66L22.47 6.66L22.47 6.66Q22.47 7.07 22.18 7.36L22.18 7.36L22.18 7.36Q21.90 7.64 21.49 7.64L21.49 7.64L21.49 7.64Q21.08 7.64 20.80 7.36L20.80 7.36L20.80 7.36Q20.51 7.07 20.51 6.66ZM18.52 15.68L18.52 14.67L20.96 14.67L20.96 9.74L18.77 9.74L18.77 8.74L22.05 8.74L22.05 14.67L24.32 14.67L24.32 15.68L18.52 15.68ZM28.01 12.07L28.01 15.68L26.92 15.68L26.92 8.74L28.01 8.74L28.01 9.91L28.18 9.91L28.18 9.91Q28.83 8.54 30.42 8.54L30.42 8.54L30.42 8.54Q31.63 8.54 32.34 9.29L32.34 9.29L32.34 9.29Q33.05 10.04 33.05 11.54L33.05 11.54L33.05 15.68L31.96 15.68L31.96 11.76L31.96 11.76Q31.96 10.67 31.47 10.12L31.47 10.12L31.47 10.12Q30.98 9.58 30.14 9.58L30.14 9.58L30.14 9.58Q29.15 9.58 28.58 10.25L28.58 10.25L28.58 10.25Q28.01 10.93 28.01 12.07L28.01 12.07ZM42.04 12.12L42.04 12.29L42.04 12.29Q42.04 13.16 41.75 13.82L41.75 13.82L41.75 13.82Q41.47 14.49 40.99 14.95L40.99 14.95L40.99 14.95Q40.52 15.40 39.88 15.64L39.88 15.64L39.88 15.64Q39.24 15.88 38.56 15.88L38.56 15.88L38.56 15.88Q37.86 15.88 37.23 15.64L37.23 15.64L37.23 15.64Q36.60 15.40 36.12 14.95L36.12 14.95L36.12 14.95Q35.64 14.49 35.36 13.82L35.36 13.82L35.36 13.82Q35.07 13.16 35.07 12.29L35.07 12.29L35.07 12.12L35.07 12.12Q35.07 11.27 35.36 10.61L35.36 10.61L35.36 10.61Q35.64 9.94 36.13 9.48L36.13 9.48L36.13 9.48Q36.61 9.02 37.24 8.78L37.24 8.78L37.24 8.78Q37.87 8.54 38.56 8.54L38.56 8.54L38.56 8.54Q39.24 8.54 39.87 8.78L39.87 8.78L39.87 8.78Q40.50 9.02 40.98 9.48L40.98 9.48L40.98 9.48Q41.47 9.94 41.75 10.61L41.75 10.61L41.75 10.61Q42.04 11.27 42.04 12.12L42.04 12.12ZM38.56 14.84L38.56 14.84L38.56 14.84Q39.06 14.84 39.49 14.66L39.49 14.66L39.49 14.66Q39.91 14.49 40.24 14.15L40.24 14.15L40.24 14.15Q40.56 13.82 40.74 13.35L40.74 13.35L40.74 13.35Q40.92 12.88 40.92 12.29L40.92 12.29L40.92 12.12L40.92 12.12Q40.92 11.56 40.74 11.09L40.74 11.09L40.74 11.09Q40.56 10.63 40.24 10.29L40.24 10.29L40.24 10.29Q39.91 9.95 39.48 9.77L39.48 9.77L39.48 9.77Q39.05 9.58 38.56 9.58L38.56 9.58L38.56 9.58Q38.07 9.58 37.63 9.77L37.63 9.77L37.63 9.77Q37.20 9.95 36.88 10.29L36.88 10.29L36.88 10.29Q36.55 10.63 36.37 11.09L36.37 11.09L36.37 11.09Q36.19 11.56 36.19 12.12L36.19 12.12L36.19 12.29L36.19 12.29Q36.19 12.88 36.37 13.35L36.37 13.35L36.37 13.35Q36.55 13.82 36.88 14.15L36.88 14.15L36.88 14.15Q37.20 14.49 37.63 14.66L37.63 14.66L37.63 14.66Q38.05 14.84 38.56 14.84ZM44.06 15.68L44.06 14.67L46.58 14.67L46.58 6.89L44.14 6.89L44.14 5.88L47.67 5.88L47.67 14.67L50.19 14.67L50.19 15.68L44.06 15.68ZM59.18 12.12L59.18 12.29L59.18 12.29Q59.18 13.16 58.89 13.82L58.89 13.82L58.89 13.82Q58.60 14.49 58.13 14.95L58.13 14.95L58.13 14.95Q57.65 15.40 57.01 15.64L57.01 15.64L57.01 15.64Q56.38 15.88 55.69 15.88L55.69 15.88L55.69 15.88Q54.99 15.88 54.36 15.64L54.36 15.64L54.36 15.64Q53.73 15.40 53.26 14.95L53.26 14.95L53.26 14.95Q52.78 14.49 52.49 13.82L52.49 13.82L52.49 13.82Q52.21 13.16 52.21 12.29L52.21 12.29L52.21 12.12L52.21 12.12Q52.21 11.27 52.49 10.61L52.49 10.61L52.49 10.61Q52.78 9.94 53.26 9.48L53.26 9.48L53.26 9.48Q53.75 9.02 54.38 8.78L54.38 8.78L54.38 8.78Q55.01 8.54 55.69 8.54L55.69 8.54L55.69 8.54Q56.38 8.54 57.01 8.78L57.01 8.78L57.01 8.78Q57.64 9.02 58.12 9.48L58.12 9.48L58.12 9.48Q58.60 9.94 58.89 10.61L58.89 10.61L58.89 10.61Q59.18 11.27 59.18 12.12L59.18 12.12ZM55.69 14.84L55.69 14.84L55.69 14.84Q56.20 14.84 56.62 14.66L56.62 14.66L56.62 14.66Q57.05 14.49 57.37 14.15L57.37 14.15L57.37 14.15Q57.69 13.82 57.88 13.35L57.88 13.35L57.88 13.35Q58.06 12.88 58.06 12.29L58.06 12.29L58.06 12.12L58.06 12.12Q58.06 11.56 57.88 11.09L57.88 11.09L57.88 11.09Q57.69 10.63 57.37 10.29L57.37 10.29L57.37 10.29Q57.05 9.95 56.62 9.77L56.62 9.77L56.62 9.77Q56.18 9.58 55.69 9.58L55.69 9.58L55.69 9.58Q55.20 9.58 54.77 9.77L54.77 9.77L54.77 9.77Q54.33 9.95 54.01 10.29L54.01 10.29L54.01 10.29Q53.69 10.63 53.51 11.09L53.51 11.09L53.51 11.09Q53.33 11.56 53.33 12.12L53.33 12.12L53.33 12.29L53.33 12.29Q53.33 12.88 53.51 13.35L53.51 13.35L53.51 13.35Q53.69 13.82 54.01 14.15L54.01 14.15L54.01 14.15Q54.33 14.49 54.76 14.66L54.76 14.66L54.76 14.66Q55.19 14.84 55.69 14.84ZM66.47 17.05L66.47 14.62L66.30 14.62L66.30 14.62Q65.97 15.25 65.39 15.56L65.39 15.56L65.39 15.56Q64.81 15.88 64.12 15.88L64.12 15.88L64.12 15.88Q63.42 15.88 62.80 15.64L62.80 15.64L62.80 15.64Q62.19 15.40 61.72 14.95L61.72 14.95L61.72 14.95Q61.25 14.50 60.98 13.84L60.98 13.84L60.98 13.84Q60.70 13.17 60.70 12.32L60.70 12.32L60.70 12.10L60.70 12.10Q60.70 11.26 60.98 10.59L60.98 10.59L60.98 10.59Q61.26 9.93 61.73 9.47L61.73 9.47L61.73 9.47Q62.19 9.02 62.80 8.78L62.80 8.78L62.80 8.78Q63.42 8.54 64.09 8.54L64.09 8.54L64.09 8.54Q64.85 8.54 65.41 8.87L65.41 8.87L65.41 8.87Q65.98 9.20 66.30 9.83L66.30 9.83L66.47 9.83L66.47 8.74L67.56 8.74L67.56 17.39L67.56 17.39Q67.56 17.86 67.26 18.17L67.26 18.17L67.26 18.17Q66.96 18.48 66.49 18.48L66.49 18.48L61.96 18.48L61.96 17.47L66.09 17.47L66.09 17.47Q66.47 17.47 66.47 17.05L66.47 17.05ZM64.15 14.84L64.15 14.84L64.15 14.84Q64.64 14.84 65.06 14.66L65.06 14.66L65.06 14.66Q65.48 14.48 65.79 14.14L65.79 14.14L65.79 14.14Q66.11 13.80 66.29 13.33L66.29 13.33L66.29 13.33Q66.47 12.87 66.47 12.29L66.47 12.29L66.47 12.12L66.47 12.12Q66.47 11.56 66.29 11.09L66.29 11.09L66.29 11.09Q66.11 10.63 65.79 10.29L65.79 10.29L65.79 10.29Q65.48 9.95 65.05 9.77L65.05 9.77L65.05 9.77Q64.62 9.58 64.15 9.58L64.15 9.58L64.15 9.58Q63.66 9.58 63.23 9.76L63.23 9.76L63.23 9.76Q62.80 9.94 62.49 10.28L62.49 10.28L62.49 10.28Q62.17 10.61 62.00 11.07L62.00 11.07L62.00 11.07Q61.82 11.54 61.82 12.10L61.82 12.10L61.82 12.32L61.82 12.32Q61.82 12.91 62.00 13.37L62.00 13.37L62.00 13.37Q62.17 13.83 62.49 14.16L62.49 14.16L62.49 14.16Q62.80 14.49 63.22 14.66L63.22 14.66L63.22 14.66Q63.64 14.84 64.15 14.84ZM74.80 17.05L74.80 14.42L74.63 14.42L74.63 14.42Q74.30 15.09 73.75 15.48L73.75 15.48L73.75 15.48Q73.21 15.88 72.37 15.88L72.37 15.88L72.37 15.88Q71.79 15.88 71.31 15.69L71.31 15.69L71.31 15.69Q70.83 15.50 70.48 15.12L70.48 15.12L70.48 15.12Q70.14 14.74 69.95 14.18L69.95 14.18L69.95 14.18Q69.76 13.62 69.76 12.88L69.76 12.88L69.76 8.74L70.85 8.74L70.85 12.74L70.85 12.74Q70.85 13.83 71.30 14.34L71.30 14.34L71.30 14.34Q71.75 14.84 72.67 14.84L72.67 14.84L72.67 14.84Q73.67 14.84 74.23 14.16L74.23 14.16L74.23 14.16Q74.80 13.48 74.80 12.35L74.80 12.35L74.80 8.74L75.89 8.74L75.89 17.39L75.89 17.39Q75.89 17.86 75.59 18.17L75.59 18.17L75.59 18.17Q75.29 18.48 74.82 18.48L74.82 18.48L70.85 18.48L70.85 17.47L74.42 17.47L74.42 17.47Q74.80 17.47 74.80 17.05L74.80 17.05Z"></path></g><defs data-v-423bf9ae=""><linearGradient data-v-423bf9ae="" gradientTransform="rotate(25)" id="5a54d7bf-bba6-471c-aa10-7938ca9c167b" x1="0%" y1="0%" x2="100%" y2="0%"><stop data-v-423bf9ae="" offset="0%" style="stop-color: rgb(66, 15, 20); stop-opacity: 1;"></stop><stop data-v-423bf9ae="" offset="100%" style="stop-color: rgb(197, 84, 94); stop-opacity: 1;"></stop></linearGradient></defs><g data-v-423bf9ae="" id="aae2d75a-6608-4cb9-9933-0e9d78fe7f84" transform="matrix(1.0452194056278645,0,0,1.0452194056278645,-0.11527021838672624,-30.323059358351998)" stroke="none" fill="url(#5a54d7bf-bba6-471c-aa10-7938ca9c167b)"><path d="M122.567 79.9a.02.02 0 0 1-.016-.02v-4.357a4.516 4.516 0 0 0-3.9-4.46.02.02 0 0 1-.016-.012c-2.572-5.777-5.475-6.5-9.106-7.391-3.743-.917-8.4-2.059-15.616-9.725a3.861 3.861 0 0 0-3.325-1.154 5.025 5.025 0 0 0-3.7 2.5c-1.284 2.29-3.541 5.276-7 6.493s-8.515 1.6-13.41 1.98a212.26 212.26 0 0 0-5.169.442.022.022 0 0 1-.018-.036C72.875 51.034 77.5 43.126 75.024 40.647L64.309 29.931C59.758 25.375 37.1 45.094 26.834 55.354S-3.141 88.275 1.412 92.828l10.715 10.716a2.47 2.47 0 0 0 1.873.746c1.6 0 4.281-1.04 9.205-4.46A161.2 161.2 0 0 0 38.2 87.644a.022.022 0 0 1 .036.016v21.574a6.131 6.131 0 0 0 6.131 6.131h76.688a6.131 6.131 0 0 0 6.131-6.131V85.812a6.115 6.115 0 0 0-4.619-5.912zm1.615 5.939v3.644a.022.022 0 0 1-.022.022H41.254a.022.022 0 0 1-.022-.022v-3.649a3.131 3.131 0 0 1 3.131-3.134h76.688a3.131 3.131 0 0 1 3.131 3.134zm-.022 16.661H41.254a.022.022 0 0 1-.022-.022v-9.956a.022.022 0 0 1 .022-.022h82.906a.022.022 0 0 1 .022.022v9.956a.022.022 0 0 1-.022.022zm-4.631-22.8H45.886a.022.022 0 0 1-.022-.022v-4.133A1.545 1.545 0 0 1 47.409 74h70.6a1.545 1.545 0 0 1 1.545 1.545v4.136a.022.022 0 0 1-.025.019zM66.7 66.744c5.088-.392 10.348-.8 14.174-2.141 4.348-1.528 7.092-5.116 8.628-7.857a2.061 2.061 0 0 1 1.452-.987.826.826 0 0 1 .775.231c7.823 8.314 13.178 9.626 17.087 10.584 2.9.71 4.7 1.162 6.445 4.391a.024.024 0 0 1-.019.035H50.419a.024.024 0 0 1-.02-.035c1.768-3.102 9.139-3.665 16.301-4.221zm-37.744-9.269C46.05 40.381 59.771 31.912 62.3 32.172a.025.025 0 0 1 .014.008l8.273 8.272a.021.021 0 0 1-.007.035c-8.4 2.873-24.75 17.3-33.03 25.583S14.839 90.7 11.967 99.1a.02.02 0 0 1-.035.007L3.66 90.834a.027.027 0 0 1-.007-.014c-.259-2.543 8.208-16.25 25.303-33.345zm-14 43.648a.371.371 0 0 1-.472-.446C15.575 96.7 24 83.867 39.671 68.191S68.161 44.1 72.15 43.006a.37.37 0 0 1 .447.472c-.895 2.684-5.441 9.754-15.94 21.347a.02.02 0 0 1-.012.006c-4.882.9-8.681 2.551-9.483 6.177a.02.02 0 0 1-.018.016 4.518 4.518 0 0 0-4.28 4.5v4.352a.02.02 0 0 1-.016.02 6.128 6.128 0 0 0-3.834 2.936c-12.398 11.52-20.976 17.282-24.058 18.291zm106.1 11.242H44.363a3.131 3.131 0 0 1-3.131-3.131v-3.712a.022.022 0 0 1 .022-.022h82.906a.022.022 0 0 1 .022.022v3.712a3.131 3.131 0 0 1-3.131 3.131z"></path></g><!----></svg>